<svg width="58" height="58" viewBox="0 0 58 58" fill="none" xmlns="http://www.w3.org/2000/svg">
<path d="M0.557692 7.4359C0.557692 3.63717 3.63717 0.557692 7.4359 0.557692H50.5641C54.3628 0.557692 57.4423 3.63717 57.4423 7.4359V50.5641C57.4423 54.3628 54.3628 57.4423 50.5641 57.4423H7.4359C3.63717 57.4423 0.557692 54.3628 0.557692 50.5641V7.4359Z" stroke="#00D7D7" stroke-width="1.11538"/>
<path fill-rule="evenodd" clip-rule="evenodd" d="M34.3774 13.2821C34.3774 16.9676 31.3898 19.9552 27.7043 19.9552C24.0189 19.9552 21.0312 16.9676 21.0312 13.2821C21.0312 9.59671 24.0189 6.60907 27.7043 6.60907C31.3898 6.60907 34.3774 9.59671 34.3774 13.2821ZM50.7502 29.8916C50.7502 30.0013 50.7476 30.1104 50.7423 30.2188L43.7502 23.2264C43.8585 23.2212 43.9675 23.2185 44.0771 23.2185C44.3242 23.2185 44.5681 23.2319 44.8082 23.2581L50.7106 29.1608C50.7368 29.4008 50.7502 29.6446 50.7502 29.8916ZM42.6429 23.373L50.5956 31.3261C50.5359 31.5987 50.4595 31.8652 50.3675 32.1243L41.8447 23.6011C42.1038 23.5091 42.3702 23.4327 42.6429 23.373ZM40.9723 23.9833L49.9853 32.9967C49.8687 33.218 49.74 33.4321 49.6002 33.6378L40.3311 24.3684C40.5369 24.2285 40.7509 24.0999 40.9723 23.9833ZM39.627 24.919L49.0496 34.3419C48.8881 34.5222 48.7169 34.6937 48.5369 34.8555L39.1134 25.4316C39.2752 25.2516 39.4467 25.0804 39.627 24.919ZM38.5615 26.1344L47.8341 35.4073C47.6287 35.5475 47.415 35.6766 47.194 35.7935L38.1753 26.7745C38.2923 26.5535 38.4213 26.3398 38.5615 26.1344ZM37.7916 27.6451L46.3234 36.1772C46.0648 36.2696 45.7989 36.3465 45.5267 36.4068L37.562 28.4418C37.6223 28.1696 37.6992 27.9037 37.7916 27.6451ZM37.4128 29.5469L44.4215 36.5559C44.3075 36.5617 44.1926 36.5647 44.0771 36.5647C43.8371 36.5647 43.6001 36.552 43.3667 36.5273L37.4414 30.6018C37.4167 30.3684 37.4041 30.1315 37.4041 29.8916C37.4041 29.776 37.407 29.6611 37.4128 29.5469ZM41.7219 36.1371C39.931 35.4614 38.5071 34.0375 37.8315 32.2466L41.7219 36.1371ZM46.462 23.6573L50.3115 27.5069C49.6352 25.7398 48.2291 24.3337 46.462 23.6573Z" fill="#00D7D7"/>
</svg>
